<svg id="Layer_1" data-name="Layer 1" xmlns="http://www.w3.org/2000/svg" viewBox="0 0 106.6 76.87"><defs><style>.cls-1{fill:none;stroke:#fbd3d0;stroke-miterlimit:10;stroke-width:2.53px;}</style></defs><title>nav</title><path class="cls-1" d="M.18,1.27h1A39.17,39.17,0,0,1,11.34,2.54C25.74,6.45,29.06,18.18,49,18.18a38.56,38.56,0,0,0,10.19-1.25c7.56-2.11,12.63-7.18,19.39-11.4C88.06.11,97.3.73,106.17,3.9"/><path class="cls-1" d="M0,29.61a37.9,37.9,0,0,1,7.88,1.17,57.27,57.27,0,0,1,5.59,1.72C29.58,41,49,54.52,66.72,42.8a71.61,71.61,0,0,0,6.19-4.06c10.28-9.2,21.85-9.34,33.26-5.95"/><path class="cls-1" d="M0,58.86a47.56,47.56,0,0,1,10.11,1.57c20.27,5.91,42.24,26.19,62.79,7.28a71.88,71.88,0,0,1,6.18-4.06c4.43-2.5,9.75-4.38,17.72-4.38a39.37,39.37,0,0,1,9.32,1"/></svg>