<svg id="daf7ab92-bb18-4314-ac3c-7df034f298de" data-name="Layer 1" xmlns="http://www.w3.org/2000/svg" viewBox="0 0 19.98 19.79"><defs><style>.\38 e087c36-c691-4bf3-9721-5ca05ecc7d06{fill:#f15f61}</style></defs><title>icon-plane</title><path class="8e087c36-c691-4bf3-9721-5ca05ecc7d06" d="M16.36 18.13a.7.7 0 0 1-.31-.07L8.34 14.3l-7.81-2A.7.7 0 0 1 .35 11L18.92.1a.7.7 0 0 1 1 .73l-2.87 16.72a.7.7 0 0 1-.69.58zM2.53 11.34L8.76 13h.13l6.94 3.38 2.5-14.31z"/><path class="8e087c36-c691-4bf3-9721-5ca05ecc7d06" d="M8.58 19.79a.7.7 0 0 1-.23 0 .7.7 0 0 1-.47-.66v-5.49a.7.7 0 0 1 .12-.45L18.73.26a.7.7 0 0 1 1.08.9L9.28 13.89v3.21l1.91-2.36a.7.7 0 1 1 1.09.89l-3.16 3.9a.71.71 0 0 1-.54.26z"/></svg>