<svg id="Layer_1" data-name="Layer 1" xmlns="http://www.w3.org/2000/svg" viewBox="0 0 152.5 117.17"><defs><style>.cls-1,.cls-14,.cls-4,.cls-6{fill:none}.cls-2{fill:#fac4c0}.cls-3{clip-path:url(#clip-path)}.cls-14,.cls-4,.cls-6{stroke:#fff;stroke-linecap:round;stroke-miterlimit:10}.cls-4{stroke-width:5px}.cls-5{clip-path:url(#clip-path-2)}.cls-6{stroke-width:4px}.cls-7{clip-path:url(#clip-path-3)}.cls-8{clip-path:url(#clip-path-4)}.cls-9{clip-path:url(#clip-path-5)}.cls-10{clip-path:url(#clip-path-6)}.cls-11{clip-path:url(#clip-path-7)}.cls-12{clip-path:url(#clip-path-8)}.cls-13{clip-path:url(#clip-path-9)}.cls-14{stroke-width:4px}.cls-15{clip-path:url(#clip-path-10)}</style><clipPath id="clip-path" transform="translate(1.72 1.87)"><path class="cls-1" d="M41 7.26c-.21.26-5.18 6.63-10.67 21.61C25.67 41.59 19.8 63 17.29 94.74c-2.47-7.51-6-17.3-9.16-26.24-2-5.68-3.94-11-5.39-15.25L0 54.2c1.46 4.23 3.37 9.6 5.4 15.28C9.8 81.8 14.78 95.75 16.81 103l2.85-.31c4-67.92 23.43-93.35 23.63-93.6z"/></clipPath><clipPath id="clip-path-2" transform="translate(1.72 1.87)"><path id="A" class="cls-1" d="M50.67 71c-.14.38-.29.76-.45 1.15-1.8 4.43-3.65 6.5-5.81 6.5h-.09a3.68 3.68 0 0 1-2.74-1.29 4.74 4.74 0 0 1-.66-1c-1.61 5-3.68 7.76-6.23 8.46h-.73A4.44 4.44 0 0 1 30.29 83c-3.08-4.3-1.83-15 1.22-21.91 2-4.45 5.6-5.68 8.33-4.92a5.53 5.53 0 0 1 1.42.62l.31-3.61 2.89.25-.7 8.15v.72L43 70.46c-.17 1.56 0 4.11.76 5a.79.79 0 0 0 .63.29c1.23 0 3.61-4.92 4.91-10.16l.61-2.28zm-9.81-9.42A2.43 2.43 0 0 0 39.07 59a3 3 0 0 0-.79-.11c-1.34 0-3 .87-4.1 3.4-2.92 6.62-3.67 16-1.53 19A1.51 1.51 0 0 0 34 82c1.44-.5 4.74-3.47 6.75-19.66v-.33z"/></clipPath><clipPath id="clip-path-3" transform="translate(1.72 1.87)"><path class="cls-1" d="M67.14 60.86c-2.45 5.86-6.58 13.38-11.73 13.68h-.18a4.48 4.48 0 0 1-3.86-2.09c-.92-1.37-1.05-3.26-1.24-4.86a30.8 30.8 0 0 1-.2-4.26 24 24 0 0 1 .24-2.9A34.37 34.37 0 0 1 52 53.58q.53-1.43 1.15-2.83c.06-.16 2-4.89 6-5a3 3 0 0 1 2.47 1.1c1.75 2.15.69 7 .46 7.92l-2.82-.69c.61-2.51.56-5.09.09-5.43h-.1c-2.08.07-3.44 3.22-3.45 3.25a37.77 37.77 0 0 0-3 11.87v.08c-.23 3.07.06 5.66 1 7a1.59 1.59 0 0 0 1.5.81c4.47-.27 9.42-11.37 11.49-18.31l.51-.2z"/></clipPath><clipPath id="clip-path-4" transform="translate(1.72 1.87)"><path class="cls-1" d="M88.23 53.42c-1.76 4.2-3.57 6.18-5.67 6.18h-.09a3.68 3.68 0 0 1-2.74-1.29 4.74 4.74 0 0 1-.66-1c-1.61 5-3.68 7.76-6.23 8.46h-.73a4.44 4.44 0 0 1-3.67-1.94c-1.58-2.18-1.66-5.54-1.7-8.17q0-1.19.06-2.37A33.41 33.41 0 0 1 69.66 42c2-4.46 5.6-5.68 8.33-4.92a5.53 5.53 0 0 1 1.42.62l.31-3.61 2.89.25-.7 8.14v.74l-.7 8.14c-.17 1.56 0 4.11.76 5a.79.79 0 0 0 .64.29c1.23 0 3.68-4.82 5-10.06l.45-.09zM79 42.52a2.43 2.43 0 0 0-1.79-2.62 2.92 2.92 0 0 0-.79-.11c-1.34 0-3 .87-4.1 3.4-2.92 6.62-3.67 16-1.53 19a1.52 1.52 0 0 0 1.39.74c1.44-.5 4.74-3.47 6.75-19.66v-.31z"/></clipPath><clipPath id="clip-path-5" transform="translate(1.72 1.87)"><path class="cls-1" d="M92.77 18.94l-2.44 28.58c-.17 1.56 0 4.11.76 5a.79.79 0 0 0 .64.29c1.23 0 3.61-4.92 4.91-10.16 0 0 2.56-9.95 2.57-9.95l-.59 13.53c-.29.9-.65 1.94-1.08 3-1.8 4.43-3.65 6.5-5.81 6.5h-.09a3.74 3.74 0 0 1-2.82-1.35 7.94 7.94 0 0 1-1.1-4 50.68 50.68 0 0 1-.18-5.14 35 35 0 0 1 .16-3.53c.21-2.84.47-5.68.73-8.52s.54-5.54.82-8.31c.15-1.46.47-4.43.47-4.46l.28-3.36.42-5 2.89.25-.27 3.2z"/></clipPath><clipPath id="clip-path-6" transform="translate(1.72 1.87)"><path class="cls-1" d="M109.76 40.44c-.32 1-.73 2.23-1.23 3.46-1.8 4.43-3.65 6.5-5.81 6.5h-.09a3.68 3.68 0 0 1-2.74-1.29c-1.92-2.19-1.37-5.5-1.28-8.19s.29-5.47.53-8.2.5-5.22.74-7.82l2.89.25-1.46 17c-.17 1.56 0 4.11.76 5a.79.79 0 0 0 .64.29c1.22 0 3.6-4.92 4.91-10.16v-.06l1.42-4.65z"/></clipPath><clipPath id="clip-path-7" transform="translate(1.72 1.87)"><path class="cls-1" d="M123.78 19.39q.11.25.19.52a10.65 10.65 0 0 1 .24 3.47q0 .78-.06 1.57t-.15 1.78q-.08.94-.2 1.89t-.28 2q-.16 1-.37 2t-.47 2c-.17.65-.37 1.29-.59 1.93s-.44 1.22-.71 1.81a16.68 16.68 0 0 1-.84 1.65 12 12 0 0 1-1 1.44l-.37.43a6.22 6.22 0 0 1-4.41 2.25h-.47c-2.49 0-4-2-4.69-4.17a26 26 0 0 1-.47-9.54 28.15 28.15 0 0 1 1.7-6.71c1.36-3.72 4.14-8.72 8.89-7.89a4.08 4.08 0 0 1 2.58 1.44 8.85 8.85 0 0 1 1.48 2.13zm-2.5 1.91a2.57 2.57 0 0 0-2-2.64 2.39 2.39 0 0 0-.41 0c-1.3 0-3.07 1-4.35 3.9-2.88 6.54-3.64 15.08-1.58 17.92a1.62 1.62 0 0 0 1.62.75h.09a3.39 3.39 0 0 0 2.4-1.29c3.36-3.74 4.53-14.12 4.23-18.64z"/></clipPath><clipPath id="clip-path-8" transform="translate(1.72 1.87)"><path class="cls-1" d="M122 16.75c2.47-4.09 4.5-5.65 6.49-5 1.36.42 2.06 1.75 2.39 3.22.55-2 2-6.59 4.42-7.85a3.7 3.7 0 0 1 4.11 0c2 1.47 2.56 5.37 1.53 11.59l-.27 1.9-.26 3c-.17 1.55 0 4.11.76 5a.79.79 0 0 0 .63.29c.34 0 1.56-.84 3.12-4.69a46.38 46.38 0 0 0 1.79-5.47l2.82.7c-.93 3.73-3.53 12.36-7.74 12.36h-.08a3.68 3.68 0 0 1-2.71-1.31c-1.94-2.23-1.52-6.71-1.46-7.21l.27-3.1.28-2a37.7 37.7 0 0 0 .49-4.94 13.35 13.35 0 0 0-.1-1.78 4.54 4.54 0 0 0-.48-1.7 1.07 1.07 0 0 0-.69-.53 1 1 0 0 0-.67.14 2 2 0 0 0-.6.56 15.35 15.35 0 0 0-1.83 4 32.85 32.85 0 0 0-1.21 4.34c-1.64 6-3.43 19.19-3.43 19.19l-1.43-.27-1.45-.11c0-.62 2.22-13.46 2.69-17.21a6.83 6.83 0 0 0-.78-4.72 1.27 1.27 0 0 0-.86-.62 1.25 1.25 0 0 0-.93.36 8.2 8.2 0 0 0-1.42 1.88c-.53.85-1.59 2.48-2.08 3.36z"/></clipPath><clipPath id="clip-path-9" transform="translate(1.72 1.87)"><rect class="cls-1" x="99.93" y="19.02" width="3.24" height="3.24" rx=".54" ry=".54" transform="rotate(-45 101.548 20.637)"/></clipPath><clipPath id="clip-path-10" transform="translate(1.72 1.87)"><path class="cls-1" d="M89.73 20.45L50.27 40.03l-1.29-2.6 41.04-20.37 3.04-1.51L124.39 0l1.29 2.6-32.91 16.34-3.04 1.51z"/></clipPath></defs><title>logo</title><path id="santa" class="cls-2" d="M62.25 76.22a7 7 0 0 0 3.53 1.23c1.05 0 1.86-.44 1.86-1.55s-.84-1.63-2.45-2.07-3.72-1.15-3.72-4c0-2.47 1.88-4.2 4.64-4.2A4.36 4.36 0 0 1 70.78 69l-2.72.79a2.11 2.11 0 0 0-2-1.78 1.38 1.38 0 0 0-1.57 1.44c0 1.13 1 1.51 2.41 1.92 2.24.63 3.76 1.78 3.76 4.16 0 2.84-2.13 4.43-4.91 4.43a8.59 8.59 0 0 1-4.43-1.17zM79 79.69l4-13.78h3.7l4.2 13.78h-3l-1-3.12h-4.03L82 79.69zm5.83-11.27c-.12.75-.31 1.71-.52 2.51l-.86 3.39h2.87L85.44 71c-.19-.71-.4-1.76-.56-2.53zm25.74-2.51v13.78H108l-3.55-6.29c-.52-.92-1-1.92-1.49-3 .08 1 .13 2.07.13 3.14v6.08h-2.99V65.91h2.78l3.43 6.38c.5.92 1.05 2 1.46 2.84-.1-1-.17-2.05-.17-3v-6.22zm9.28 0h10.73v2.3h-3.88v11.48h-3V68.21h-3.87zm16.85 13.78l4-13.78h3.7l4.2 13.78h-3l-1-3.12h-4.06l-.9 3.12zm5.83-11.27c-.12.75-.31 1.71-.52 2.51l-.86 3.39H144l-.87-3.32c-.19-.71-.4-1.76-.56-2.53z" transform="translate(1.72 1.87)"/><path id="ana" class="cls-2" d="M60.94 102.69l4-13.78h3.7l4.2 13.78h-3l-1-3.12h-4.03l-.9 3.12zm5.83-11.27c-.12.75-.31 1.71-.52 2.51l-.86 3.39h2.87L67.38 94c-.19-.71-.4-1.76-.56-2.53zm25.74-2.51v13.78H89.9l-3.55-6.29c-.52-.92-1-1.92-1.49-3 .08 1 .13 2.07.13 3.14v6.08H82V88.91h2.78l3.43 6.38c.5.92 1.05 2 1.46 2.84-.1-1-.17-2.05-.17-3v-6.22zm9.16 13.78l4-13.78h3.7l4.2 13.78h-3l-1-3.12h-4.06l-.9 3.12zm5.83-11.27c-.12.75-.31 1.71-.52 2.51l-.86 3.39H109l-.89-3.32c-.19-.71-.4-1.76-.56-2.53z" transform="translate(1.72 1.87)"/><g class="cls-3"><path class="cls-4" d="M44.16 5.55C33.67 21 27.85 40.21 23.8 58.3c-1.84 8.23-4 25-4 25l-2.07 20.36-17-50" transform="translate(1.72 1.87)"/></g><g class="cls-5" id="a1"><path class="cls-6" d="M40.28 59.13c1.79 5.92 1 22-6 24-6.36.64-6.14-14.09-.67-22.76 2.67-4.24 6.18-2.86 6.67-1.24z" transform="translate(1.72 1.87)"/><path class="cls-4" d="M51.78 62.63s-3.63 14.6-7.5 14.5-2.56-6.43-2.56-6.43l1.56-17.57" transform="translate(1.72 1.87)"/></g><g class="cls-7" id="c"><path class="cls-4" d="M69.78 51.63c-6 17-13.5 21.5-13.5 21.5-8 1-6-13.14-2-21.81 0 0 2-4.19 5.06-4.19 3.47 0 1.44 8.5 1.44 8.5" transform="translate(1.72 1.87)"/></g><g class="cls-8" id="a2"><path class="cls-6" d="M78.1 40.19a10.75 10.75 0 0 1 .4 4.21 83.93 83.93 0 0 1-1.33 11.65 18.7 18.7 0 0 1-1.85 5.31c-.53.94-1.77 2.76-3 2.76-6.36.64-5.87-13.93-.67-22.76.75-1.28 1.9-2.94 3.53-3.12a2.64 2.64 0 0 1 2.92 1.95z" transform="translate(1.72 1.87)"/><path class="cls-4" d="M88.78 46.63s-2 11-6.59 11.31c-3.38.23-2.68-6.86-2.68-6.86l1.39-16.95" transform="translate(1.72 1.87)"/></g><g class="cls-9" id="t-vert"><path class="cls-4" d="M101.78 31.63c-.41 2-.91 4.07-1.46 6.08a61.81 61.81 0 0 1-3.89 11.07c-.86 1.76-1.86 3.86-3.62 4.88a2.42 2.42 0 0 1-2.74 0 4.3 4.3 0 0 1-1.1-3c-.33-5.16.6-10.39 1-15.52q.42-4.81.81-9.63l.94-11.25.5-6v-.13" transform="translate(1.72 1.87)"/></g><g class="cls-10" id="i"><path class="cls-4" d="M111.78 30.63s-5.35 18.29-9.22 18.19-3.28-7.69-3.28-7.69l1.5-17.5" transform="translate(1.72 1.87)"/></g><g class="cls-11" id="o"><path class="cls-4" d="M123 24.13a25.48 25.48 0 0 1-3.49 14.6c-1.17 1.87-2.64 4.09-5 4.4-3.2.42-4.09-2.68-4.15-5.23a49.4 49.4 0 0 1 .95-11.29c.58-2.74 1.46-5.91 3.45-8a5.83 5.83 0 0 1 4.63-2c2.19.25 2.86 1.8 3.2 3.73q.11.6.19 1.2c.14.87.22 1.73.22 2.59z" transform="translate(1.72 1.87)"/></g><g class="cls-12"><path class="cls-4" d="M148.28 18.84a39.67 39.67 0 0 1-3.56 9.78c-1.07 1.87-3.52 3.81-5 1.21-.9-1.55-.8-3.64-.71-5.37.21-3.83.86-7.63 1.09-11.46.12-2 .14-5.52-2.46-5.87-1.9-.26-3.33 2.73-4 4.1a24.68 24.68 0 0 0-2 6c-1.49 7.07-2.49 14.27-3.74 21.4" transform="translate(1.72 1.87)"/><path class="cls-6" d="M127.87 38.64s2.69-16.51 1.69-20.51c-.77-3.07-1.28-10-7.28 1" transform="translate(1.72 1.87)"/></g><g class="cls-13" id="dot"><path class="cls-14" d="M104.5 24.5l-3-4"/></g><g class="cls-15" id="t-line"><path class="cls-4" d="M128.5 2.5l-78 38"/></g></svg>