<svg id="46ed701b-066c-4aa9-9189-812689c96abf" data-name="Layer 1" xmlns="http://www.w3.org/2000/svg" viewBox="0 0 592.54 270.1"><defs><style>.faa81fca-a878-40d3-b941-26ee7349ad71{fill:#ccac6b}.\31 25407c4-d744-4b60-a0c0-5b62671c3624{fill:#fff}.f47c4965-d3ba-4a4b-a14b-2758e8b95de2{fill:#153323}.d01a3deb-afbc-48eb-9991-b296f004303e{fill:#fac5c0}</style></defs><title>opening</title><path class="faa81fca-a878-40d3-b941-26ee7349ad71" d="M588.54 205c-.09-5.28-.38-10.64-.67-15.83-.16-2.89-.32-5.78-.44-8.68-.47-10.9-.25-21.84.21-32.36v.06-.12c.11-2.52.24-5 .37-7.48h.07v-1c0-.5.05-1 .08-1.52l.05-.61 4.35-3.45-4.23 2c.09-1 .17-1.92.19-2.35a20.89 20.89 0 0 1 .32-2.84 16 16 0 0 0 .28-4.21c-.11-1.3-.15-2.64-.18-3.94l1.06.06-1.08-.66a36.38 36.38 0 0 0-1.12-9.55 25.15 25.15 0 0 1-.78-5 32.73 32.73 0 0 0-.61-4.49 27.75 27.75 0 0 1-.48-5.34c0-1.12-.06-2.28-.17-3.42a79.27 79.27 0 0 1-.21-15.56l1.13-1.13-1.07.61c0-.28.05-.55.09-.83.07-.52.15-1.05.23-1.58a35 35 0 0 0 .47-4.5q0-1.47.06-2.95a118.68 118.68 0 0 0-.37-16.11c-.14-1.27-.64-4.2-2.09-4.2a39.25 39.25 0 0 1-8.17-1c-1.15-.23-2.24-.44-3.26-.6a32.79 32.79 0 0 1-12.46-4.58 66.87 66.87 0 0 1-11.91-9 3.46 3.46 0 0 0-2.2-1.19 2 2 0 0 0 0-.41 3.14 3.14 0 0 0-1.74-2.12l-.14-.09a19.24 19.24 0 0 1-5.12-5.46l-.07-.1a86.91 86.91 0 0 1-6.16-10.71c-.68-1.33-1.36-2.65-2.06-4-.6-1.11-2.95-4.7-3-4.85l-.27-.41h-.49a37.56 37.56 0 0 0-5.83 0c-2.84.38-5.61.48-8.54.59h-.94c-2.48.1-5 .37-7.36.64a67.33 67.33 0 0 1-11 .62c-1.08-.06-2.17-.13-3.26-.21a72.52 72.52 0 0 0-9.74-.23c-3.62.24-7.32.32-10.91.4h-1.25a23.72 23.72 0 0 1-2.77-.15c-2.4-.22-5.1-.47-7.55 1.06l-.17-.08c-3.51-1.64-7.09-1.22-10.22-.48l-.7.19a3 3 0 0 1-1.34 0 67.17 67.17 0 0 0-11.7-.59h-5.69c-1.88 0-3.62 0-5.37.12a56.4 56.4 0 0 1-5.81.09c-.68 0-1.37-.1-2.06-.17-2.54-.25-5.17-.51-7.7.6l-.19-.55-.69.41-2-1.73.81 2.17a5.9 5.9 0 0 1-1.21-.2 8.39 8.39 0 0 0-1.4-.19c-5.68-.18-10.81-.32-16-.19-2.75.07-5.55.05-8.26 0h-6.27a33.7 33.7 0 0 1-5.36-.51 40.77 40.77 0 0 0-5.32-.55h-3.63c-1.18 0-2.68.07-4 0-1.56 0-3.11-.12-4.67-.19h-.76l-.09-.02v.08a89.44 89.44 0 0 0-11.26 0 36.78 36.78 0 0 1-4.58 0c-.69 0-1.37-.06-2.06-.08-1.58 0-3.21-.21-4.78-.38a31.63 31.63 0 0 0-9.59 0 3.31 3.31 0 0 1-.85 0c-6.48-.56-13 0-19.26.48-2.58.21-5.25.43-7.87.56-4.13.22-8.33.17-12.39.13L272.7 5c-6.53-.05-13.51-.43-22-1.2-3.51-.32-7.14-.36-10.65-.39h-1.1L243.53 0l-7.07 3.4H236a2 2 0 0 0-1.67.6 10 10 0 0 0-4.33-.18 40 40 0 0 1-6.06.31c-.92 0-1.83-.09-2.79-.17a31.82 31.82 0 0 0-3.31-.18 26.73 26.73 0 0 0-2.73.22 11.66 11.66 0 0 1-5.46-.24 15 15 0 0 0-4.5-.51 164.79 164.79 0 0 0-18.8.73 40.85 40.85 0 0 1-4.17.2h-.05c-1.47 0-3-.14-4.43-.28a36.65 36.65 0 0 0-6.19-.24h-.31a2.25 2.25 0 0 0-2.2 1.18 1.38 1.38 0 0 0-.4-.67 1.62 1.62 0 0 0-1.5-.26H166.43a10.2 10.2 0 0 1-1.48.11L161.22 4c-4.56-.1-9.28-.2-13.9-.52-3-.2-6-.13-8.93-.06-2.72.07-5.54.14-8.3 0-4-.23-8.12-.08-12.13.06h-1.4c-1.85.06-3.71.21-5.51.35a59.7 59.7 0 0 1-11.22.18 6.5 6.5 0 0 0-1.83.18 3.39 3.39 0 0 1-1.21.08 1.92 1.92 0 0 0-2.5.69 4.85 4.85 0 0 0-3.42-.88h-.74c-5.17.08-10.52.17-15.77 0a30.41 30.41 0 0 0-4.36.05 48.62 48.62 0 0 1-5.37.34h-.15a16 16 0 0 1-3.43 0c-.83-.06-1.7-.13-2.56-.12l-2.81.06-2.68.05-.29.37a9.23 9.23 0 0 0-2.33 6.78l-.4.18a2.31 2.31 0 0 0-1.27 2v.1a14.31 14.31 0 0 1-1.07 3.47 19.56 19.56 0 0 0-1.06 3.14 11.89 11.89 0 0 0-1.36 3.25c-.17.56-.33 1.09-.54 1.6l-4.77-4.82 3.7 6.26-.39.35V28.46a2 2 0 0 0-1.07 1 5.93 5.93 0 0 0-2.89 2.27 5.43 5.43 0 0 0-2.51 2.35l-.89.62-2.2 1.34h-.26l-.14.2-.43.23a8.69 8.69 0 0 1-1.36.66 4.06 4.06 0 0 0-1.77 1.37c-.19.22-.45.53-.57.55a23.56 23.56 0 0 0-5 1.85 21.93 21.93 0 0 1-4.34 1.65C8.89 45.3 1.36 46.38 1.28 46.39l-.66.09-.17.65a16.34 16.34 0 0 0-.39 5.15C.48 56.3.93 61 1 65.51v7.51c0 4.62-.07 9.39.16 14.09.2 4.11.11 8.31 0 12.37-.07 3.31-.14 6.73-.06 10.11 0 1.78.06 3.56.08 5.34 0 4 .08 8.16.42 12.27.16 1.91.25 3.93.27 6.15v4.35c0 1.05-.11 2.1-.17 3.14a55.24 55.24 0 0 0-.06 9.38c.37 3.39.63 6.85.89 10.19.34 4.49.7 9.13 1.31 13.69.34 2.52.51 5.12.67 7.63.09 1.47.19 2.94.32 4.41s.11 2.9.1 4.32v2c0 4 .25 8.09.45 12 .09 1.77.18 3.55.26 5.32v.4c.22 1.22.32 2.47.43 3.79v.24a51.37 51.37 0 0 0 .75 5.15l.15.79h.81l1.68.07a17.24 17.24 0 0 1 5.48.62 3.77 3.77 0 0 1 .5.2l.29.09a20.27 20.27 0 0 1 7.68 2.69c7.1 4.29 12.36 8.69 16.16 13.58l-3.48 5 4.38-3.79a37.51 37.51 0 0 1 2.46 3.89l1.72 3.13c2 3.68 4.13 7.49 6 11.29l.08.16.13.12a2.45 2.45 0 0 1 .38.45 46.36 46.36 0 0 1 3.76 7.57l.52 1.23.32.17a5.53 5.53 0 0 0 .73.31l4.88.14 6.92.12h.18l.54-.08C87.9 265.25 107 266 124.84 267c10.28.6 19.57 1.1 29.06 1.29 4.11.08 8.29.39 12.34.68 5.11.37 10.4.76 15.65.7a5.43 5.43 0 0 1 1.25.12h.24c6.51-.2 13.13-.16 19.54-.13 6.94 0 14.11.07 21.18-.18 6.87-.25 14-.34 22.67-.29l1.15-.06 1.67-.08c6-.26 12 0 17.88.2 3.91.15 8 .31 11.94.32 2.17 0 4.42 0 6.57-.1 3-.07 6.11-.15 9.15-.06 2.64.08 5.28.18 7.92.28 5 .2 10.09.4 15.17.4h12.02c6.13 0 12.47 0 18.71-.39 3.36-.22 6.81-.12 10.15 0s6.79.2 10.19 0c6.38-.41 12.88-.32 19.17-.23 3.63.05 7.38.1 11.07.06 7.41-.09 14.95 0 22.24.13 3.26 0 6.52.09 9.79.13.76 0 1.52 0 2.29.07a31.89 31.89 0 0 0 5.31-.07 80.13 80.13 0 0 1 13.61-.15c1.92.09 3.91.18 5.87.21h2c5.35.08 10.89.17 16.35 0 1.55 0 3.11-.11 4.66-.18a101.34 101.34 0 0 1 15.17.11h.11c5.38 0 10.77 0 16.15-.08l9.77-.07 1.79-.12a40.86 40.86 0 0 1 4.21-.15c2.29-.1 4.58-.17 6.87-.24h1v-1a13.51 13.51 0 0 1 .39-2.9c.07-.33.14-.65.19-1a8.87 8.87 0 0 1 .38-1.38v-.18a23.1 23.1 0 0 1 .8-3.35 14.4 14.4 0 0 1 1.51-3c.23-.38.46-.76.67-1.15l.09-.2a8.7 8.7 0 0 1 1-2.28 27.25 27.25 0 0 1 4.13-4.93 2.66 2.66 0 0 1 .53-.4l.15-.09.11-.13a68.09 68.09 0 0 1 9.25-8.54 69.9 69.9 0 0 1 21.49-11.69l.45-.16a2.78 2.78 0 0 1 .72-.24h.13a9.77 9.77 0 0 0 1.37-.61 7.94 7.94 0 0 1 1.18-.52 18 18 0 0 1 4-1.11 9.86 9.86 0 0 0 1.28-.46c.4-.16 1.06-.42 1.2-.46l.71-.08.15-.7a15.2 15.2 0 0 0 .27-1.91l.07-.71a53.83 53.83 0 0 0-.13-9.64c-.11-1.8-.24-3.58-.27-5.3zm-329.43 59.76l-7.11.1c-7.2.11-14.65.22-22 0h-.2l-.19.07-.14.06a7.84 7.84 0 0 0-3.06 0 11.78 11.78 0 0 1-1.34.13q-14.93.2-29.85.43c-1.42 0-2.84.07-4.26.12-2.59.09-5.27.18-7.88.1s-5.12-.29-7.61-.5c-1.76-.15-3.57-.3-5.37-.4l-3-.18c-6-.35-12.3-.72-18.48-.63-4.69.07-9.43-.24-14-.54-3.66-.24-7.45-.49-11.2-.54h-1.75c-4.25-.06-8.63-.12-12.78-.53-3.88-.39-7.67-.57-10.54-.69a3.15 3.15 0 0 0-.84.09 3.24 3.24 0 0 1-.73.07c-2.73 0-5.47.07-8.13.14-1.88.05-3.76.11-5.64.13h-2.49c-2.4 0-4.88 0-7.32.15a3 3 0 0 0-.45.05 31.55 31.55 0 0 1-10.59.45c-3.14-.44-3.69-.87-4.53-3.55a10.6 10.6 0 0 0-2.87-5.2 6.81 6.81 0 0 0-1.91-4.37 19.44 19.44 0 0 1-3.1-5.29c-.36-.79-.71-1.57-1.11-2.33C44 233 38 226.22 30.33 221.34l-1.86-1.22a39.54 39.54 0 0 0-8.14-4.48 28.33 28.33 0 0 0-5.89-1.27c-.66-.09-1.33-.19-2-.3-1.31-.22-1.3-.37-1.27-.94 0-.79.07-1.58.09-2.37l1.95 1.69-1.93-2.72c0-2.69 0-5.38-.1-8-.11-3.91-.22-7.95 0-11.91.32-5-.53-10.06-1.43-14.84a18.23 18.23 0 0 1-.44-4 62 62 0 0 0-.69-10.13c-.28-2.25-.57-4.58-.67-6.86-.12-2.64-.15-5.38-.17-8 0-2.47-.06-5-.16-7.53v-.22a106.71 106.71 0 0 0-.36-12.81c-.6-6.91-.84-14.37-.74-22.8 0-3-.05-6-.14-9-.13-4.23-.26-8.61 0-12.9.27-4.53.18-9.13.1-13.58 0-1.71-.06-3.42-.08-5.13 0-1.41-.14-2.82-.26-4.18A36 36 0 0 1 6 52.48c.06-1 .31-1.38 1.84-1.73 7.15-1.64 16.43-4.15 24.76-9.11A69.34 69.34 0 0 0 46.83 31c3-3 4.33-6.74 5.53-10.61.75-2.4 1.6-4.83 2.43-7.17.49-1.4 1-2.8 1.46-4.21.1-.29.13-.36.83-.29a107.37 107.37 0 0 0 18 .16l1.28-.09a79.25 79.25 0 0 1 10.4-.29 71.45 71.45 0 0 0 7.74-.05c2.32-.1 4.71-.2 7.06-.08a110.6 110.6 0 0 0 11.71-.21c1.47-.08 2.93-.16 4.4-.21h2.39a15.73 15.73 0 0 0 6.76-.84c2.08 1.24 4.35 1.09 6.37.95.68 0 1.33-.09 1.95-.08 1.94 0 3.92.09 5.84.16A104.35 104.35 0 0 0 153.74 8a1.92 1.92 0 0 1 .63.08l-4.6 3.62 6.33-3.17a3.49 3.49 0 0 0 .66 0 3 3 0 0 0 1.85-.5 1 1 0 0 1 .86-.23 27.31 27.31 0 0 0 8.28.34 45.1 45.1 0 0 1 4.53-.13c1.38.05 2.77 0 4.12 0 1.81 0 3.69 0 5.52.11a61.89 61.89 0 0 0 9.2-.16l2.21-.14a83.8 83.8 0 0 1 14.46 0 20.49 20.49 0 0 0 3.12.05 19.25 19.25 0 0 1 2.51 0 79.79 79.79 0 0 0 13.26-.18c2.63-.18 5.35-.37 8-.39 5.31 0 10.75.28 16 .57 2.54.14 5.09.29 7.64.39 1.06 0 2.16.15 3.23.24a27 27 0 0 0 8.24-.09 10.51 10.51 0 0 1 4.62.26 12.74 12.74 0 0 0 4.63.36 51.92 51.92 0 0 1 6-.44c1.12 0 2.24-.08 3.35-.15l3.44-.22c3.91-.24 7.95-.49 11.92-1a31.56 31.56 0 0 1 4-.21c.92 0 1.87 0 2.81-.08a77.73 77.73 0 0 1 10.4.25c1.5.1 3 .21 4.5.27s2.83.14 4.24.22a109.22 109.22 0 0 0 15.66.11 28.77 28.77 0 0 1 4.77.16l1.55.13c10.27.73 20.55 1.11 30.55 1.11 1.11 0 2.24 0 3.37-.06a50.41 50.41 0 0 1 7.27.14 69.17 69.17 0 0 0 11.95.08l3.33-.15 5 2.51-3-2.57a49 49 0 0 1 5.24.17 111.09 111.09 0 0 0 14.35.08c1.51-.06 3-.11 4.52-.15.76 0 1.53 0 2.35.09a12.78 12.78 0 0 0 5.6-.45.94.94 0 0 1 .54 0c4.91 1.14 9.86.81 14.65.48a73 73 0 0 1 9.31-.23c4.72.29 9.5.32 14.13.34 4.79 0 9.75.05 14.6.38a39.13 39.13 0 0 0 7.56-.38c1.05-.13 2.11-.27 3.17-.36s2-.2 3.07-.32a41.86 41.86 0 0 1 9.55-.33 39.68 39.68 0 0 0 5.51 0 .78.78 0 0 1 .75.36c.73 1.47 2.05 4.16 2.7 5.6.13.3.26.6.39.91a11.49 11.49 0 0 0 2.55 4.17 1.16 1.16 0 0 1 .42.79c0 1.65 1 2.81 2 3.82l.31.34c.21.32.39.67.59 1a6.24 6.24 0 0 0 3 3.22v.25a4.47 4.47 0 0 0 2.4 3l.33.22a2.9 2.9 0 0 0 1.35.37l-.27.38.08.44a1.9 1.9 0 0 0 .81 1.1 34.83 34.83 0 0 1 4.6 3.58 32.84 32.84 0 0 0 5.56 4.23 6.69 6.69 0 0 1 1.34 1.13c.24.24.47.47.72.69l3 2.68-.05-.14a2.93 2.93 0 0 0 2.81.85c2.71 2.21 6 3.14 9.07 3.9 2.06.51 4.16.88 6.19 1.24 1.24.22 2.52.45 3.77.71l2.38 2.44c.05.25.11.5.17.75a10.12 10.12 0 0 1 .17 2.89 12.29 12.29 0 0 0 .19 3.29 2.88 2.88 0 0 0-.16 2.75 1.9 1.9 0 0 1 .17.87 6 6 0 0 0-.83 3.59v.72a39.22 39.22 0 0 1-.78 6.9l-.06.26a4.22 4.22 0 0 0 .27 3.48l-.47.27.06.87a137.19 137.19 0 0 0 .52 14.44c0 .55.08 1.1.11 1.64a25.09 25.09 0 0 0 .7 5.3v.18a2 2 0 0 0 .43 2 1.74 1.74 0 0 0 1.33.37c-1.47 2.14-1 4.27-.48 6.17a17.75 17.75 0 0 1 .37 1.76c.21 1.53.38 3.06.53 4.6l-2.54-1.42 2.67 2.86c0 .39.07.78.1 1.17l-6.14 3.8 6.27-2.17c.19 2.67.32 5.31.43 7.87 0 .45-.1 2.84-.19 4.59l-.07 1.34h-.11l.07.7v.65a2.2 2.2 0 0 0-.07.6 5 5 0 0 0-.15 4v.11a4.24 4.24 0 0 0-.43 1.76c-.26 5.44-.39 11-.52 16.32-.07 3-.15 5.91-.24 8.87-.07 2.17 0 4.36 0 6.49 0 2.64.07 5.37-.08 8a39.69 39.69 0 0 0 .16 5.31c.11 1.41.22 2.88.19 4.3-.06 3.15 0 6.34.15 9.42.07 2.13.15 4.34.17 6.5 0 1.91.44 6.33.69 8.8a1.36 1.36 0 0 1-1 1.36 13.21 13.21 0 0 1-1.47.44 68.92 68.92 0 0 0-20.43 8.23l-1.16.7a66.91 66.91 0 0 0-9 6.11c-5.3 4.52-11.3 9.65-14.94 16.54a31.27 31.27 0 0 0-2.34 6.52c-.28 1-.57 2.08-.91 3.1-.9 2.68-1 2.68-2.22 2.6H529.94a14.42 14.42 0 0 1-2.52.34 5.33 5.33 0 0 1-.72 0c-4.16-.06-8.37.1-12.44.26-2 .08-4 .16-6 .21-4.21.11-8.51 0-12.66-.11-2.08-.05-4.16-.11-6.24-.14-9.9-.13-20-.05-29.7 0l-8.67.06c-9.24.06-18.63 0-27.72 0H413c-4.08 0-8.28-.2-12.34-.39-3-.14-6-.29-9.05-.36h-.12l-1.12.14a5.59 5.59 0 0 1-1.87-.17h-.2q-3.25 0-6.22.17h-.24a5.21 5.21 0 0 1-1.58.24h-2.19l-1.14.13a7.52 7.52 0 0 1-2.59-.1h-.24c-5.63.08-11.36.23-16.89.38s-11.56.31-17.34.38c-11.69.15-24 .14-40.07 0-5.59-.05-11.28-.22-16.78-.38-7.82-.05-15.92-.28-23.91-.2zM50.89 18a.35.35 0 0 1 0 .12.66.66 0 0 1-.12.18v-.57zm-.63-.32a.32.32 0 0 1 .23-.15.44.44 0 0 1 .22.12l-.09.64a.59.59 0 0 1-.36-.61zm522 32.06a.71.71 0 0 1-.24-.18.54.54 0 0 1-.14-.53.49.49 0 0 1 .29.1.5.5 0 0 1 .1.11l.06.27a.59.59 0 0 1-.07.23z"/><path class="125407c4-d744-4b60-a0c0-5b62671c3624" d="M259.11 264.76l-7.11.1c-7.2.11-14.65.22-22 0h-.2l-.19.07-.14.06a7.84 7.84 0 0 0-3.06 0 11.78 11.78 0 0 1-1.34.13q-14.93.2-29.85.43c-1.42 0-2.84.07-4.26.12-2.59.09-5.27.18-7.88.1s-5.12-.29-7.61-.5c-1.76-.15-3.57-.3-5.37-.4l-3-.18c-6-.35-12.3-.72-18.48-.63-4.69.07-9.43-.24-14-.54-3.66-.24-7.45-.49-11.2-.54h-1.75c-4.25-.06-8.63-.12-12.78-.53-3.88-.39-7.67-.57-10.54-.69a3.15 3.15 0 0 0-.84.09 3.24 3.24 0 0 1-.73.07c-2.73 0-5.47.07-8.13.14-1.88.05-3.76.11-5.64.13h-2.49c-2.4 0-4.88 0-7.32.15a3 3 0 0 0-.45.05 31.55 31.55 0 0 1-10.59.45c-3.14-.44-3.69-.87-4.53-3.55a10.6 10.6 0 0 0-2.87-5.2 6.81 6.81 0 0 0-1.91-4.37 19.44 19.44 0 0 1-3.1-5.29c-.36-.79-.71-1.57-1.11-2.33C44 233 38 226.22 30.33 221.34l-1.86-1.22a39.54 39.54 0 0 0-8.14-4.48 28.33 28.33 0 0 0-5.89-1.27c-.66-.09-1.33-.19-2-.3-1.31-.22-1.3-.37-1.27-.94 0-.79.07-1.58.09-2.37l1.95 1.69-1.93-2.72c0-2.69 0-5.38-.1-8-.11-3.91-.22-7.95 0-11.91.32-5-.53-10.06-1.43-14.84a18.23 18.23 0 0 1-.44-4 62 62 0 0 0-.69-10.13c-.28-2.25-.57-4.58-.67-6.86-.12-2.64-.15-5.38-.17-8 0-2.47-.06-5-.16-7.53v-.22a106.71 106.71 0 0 0-.36-12.81c-.6-6.91-.84-14.37-.74-22.8 0-3-.05-6-.14-9-.13-4.23-.26-8.61 0-12.9.27-4.53.18-9.13.1-13.58 0-1.71-.06-3.42-.08-5.13 0-1.41-.14-2.82-.26-4.18A36 36 0 0 1 6 52.48c.06-1 .31-1.38 1.84-1.73 7.15-1.64 16.43-4.15 24.76-9.11A69.34 69.34 0 0 0 46.83 31c3-3 4.33-6.74 5.53-10.61.75-2.4 1.6-4.83 2.43-7.17.49-1.4 1-2.8 1.46-4.21.1-.29.13-.36.83-.29a107.37 107.37 0 0 0 18 .16l1.28-.09a79.25 79.25 0 0 1 10.4-.29 71.45 71.45 0 0 0 7.74-.05c2.32-.1 4.71-.2 7.06-.08a110.6 110.6 0 0 0 11.71-.21c1.47-.08 2.93-.16 4.4-.21h2.39a15.73 15.73 0 0 0 6.76-.84c2.08 1.24 4.35 1.09 6.37.95.68 0 1.33-.09 1.95-.08 1.94 0 3.92.09 5.84.16A104.35 104.35 0 0 0 153.74 8a1.92 1.92 0 0 1 .63.08l-4.6 3.62 6.33-3.17a3.49 3.49 0 0 0 .66 0 3 3 0 0 0 1.85-.5 1 1 0 0 1 .86-.23 27.31 27.31 0 0 0 8.28.34 45.1 45.1 0 0 1 4.53-.13c1.38.05 2.77 0 4.12 0 1.81 0 3.69 0 5.52.11a61.89 61.89 0 0 0 9.2-.16l2.21-.14a83.8 83.8 0 0 1 14.46 0 20.49 20.49 0 0 0 3.12.05 19.25 19.25 0 0 1 2.51 0 79.79 79.79 0 0 0 13.26-.18c2.63-.18 5.35-.37 8-.39 5.31 0 10.75.28 16 .57 2.54.14 5.09.29 7.64.39 1.06 0 2.16.15 3.23.24a27 27 0 0 0 8.24-.09 10.51 10.51 0 0 1 4.62.26 12.74 12.74 0 0 0 4.63.36 51.92 51.92 0 0 1 6-.44c1.12 0 2.24-.08 3.35-.15l3.44-.22c3.91-.24 7.95-.49 11.92-1a31.56 31.56 0 0 1 4-.21c.92 0 1.87 0 2.81-.08a77.73 77.73 0 0 1 10.4.25c1.5.1 3 .21 4.5.27s2.83.14 4.24.22a109.22 109.22 0 0 0 15.66.11 28.77 28.77 0 0 1 4.77.16l1.55.13c10.27.73 20.55 1.11 30.55 1.11 1.11 0 2.24 0 3.37-.06a50.41 50.41 0 0 1 7.27.14 69.17 69.17 0 0 0 11.95.08l3.33-.15 5 2.51-3-2.57a49 49 0 0 1 5.24.17 111.09 111.09 0 0 0 14.35.08c1.51-.06 3-.11 4.52-.15.76 0 1.53 0 2.35.09a12.78 12.78 0 0 0 5.6-.45.94.94 0 0 1 .54 0c4.91 1.14 9.86.81 14.65.48a73 73 0 0 1 9.31-.23c4.72.29 9.5.32 14.13.34 4.79 0 9.75.05 14.6.38a39.13 39.13 0 0 0 7.56-.38c1.05-.13 2.11-.27 3.17-.36s2-.2 3.07-.32a41.86 41.86 0 0 1 9.55-.33 39.68 39.68 0 0 0 5.51 0 .78.78 0 0 1 .75.36c.73 1.47 2.05 4.16 2.7 5.6.13.3.26.6.39.91a11.49 11.49 0 0 0 2.55 4.17 1.16 1.16 0 0 1 .42.79c0 1.65 1 2.81 2 3.82l.31.34c.21.32.39.67.59 1a6.24 6.24 0 0 0 3 3.22v.25a4.47 4.47 0 0 0 2.4 3l.33.22a2.9 2.9 0 0 0 1.35.37l-.27.38.08.44a1.9 1.9 0 0 0 .81 1.1 34.83 34.83 0 0 1 4.6 3.58 32.84 32.84 0 0 0 5.56 4.23 6.69 6.69 0 0 1 1.34 1.13c.24.24.47.47.72.69l3 2.68-.05-.14a2.93 2.93 0 0 0 2.81.85c2.71 2.21 6 3.14 9.07 3.9 2.06.51 4.16.88 6.19 1.24 1.24.22 2.52.45 3.77.71l2.38 2.44c.05.25.11.5.17.75a10.12 10.12 0 0 1 .17 2.89 12.29 12.29 0 0 0 .19 3.29 2.88 2.88 0 0 0-.16 2.75 1.9 1.9 0 0 1 .17.87 6 6 0 0 0-.83 3.59v.72a39.22 39.22 0 0 1-.78 6.9l-.06.26a4.22 4.22 0 0 0 .27 3.48l-.47.27.06.87a137.19 137.19 0 0 0 .52 14.44c0 .55.08 1.1.11 1.64a25.09 25.09 0 0 0 .7 5.3v.18a2 2 0 0 0 .43 2 1.74 1.74 0 0 0 1.33.37c-1.47 2.14-1 4.27-.48 6.17a17.75 17.75 0 0 1 .37 1.76c.21 1.53.38 3.06.53 4.6l-2.54-1.42 2.67 2.86c0 .39.07.78.1 1.17l-6.14 3.8 6.27-2.17c.19 2.67.32 5.31.43 7.87 0 .45-.1 2.84-.19 4.59l-.07 1.34h-.11l.07.7v.65a2.2 2.2 0 0 0-.07.6 5 5 0 0 0-.15 4v.11a4.24 4.24 0 0 0-.43 1.76c-.26 5.44-.39 11-.52 16.32-.07 3-.15 5.91-.24 8.87-.07 2.17 0 4.36 0 6.49 0 2.64.07 5.37-.08 8a39.69 39.69 0 0 0 .16 5.31c.11 1.41.22 2.88.19 4.3-.06 3.15 0 6.34.15 9.42.07 2.13.15 4.34.17 6.5 0 1.91.44 6.33.69 8.8a1.36 1.36 0 0 1-1 1.36 13.21 13.21 0 0 1-1.47.44 68.92 68.92 0 0 0-20.43 8.23l-1.16.7a66.91 66.91 0 0 0-9 6.11c-5.3 4.52-11.3 9.65-14.94 16.54a31.27 31.27 0 0 0-2.34 6.52c-.28 1-.57 2.08-.91 3.1-.9 2.68-1 2.68-2.22 2.6H529.94a14.42 14.42 0 0 1-2.52.34 5.33 5.33 0 0 1-.72 0c-4.16-.06-8.37.1-12.44.26-2 .08-4 .16-6 .21-4.21.11-8.51 0-12.66-.11-2.08-.05-4.16-.11-6.24-.14-9.9-.13-20-.05-29.7 0l-8.67.06c-9.24.06-18.63 0-27.72 0H413c-4.08 0-8.28-.2-12.34-.39-3-.14-6-.29-9.05-.36h-.12l-1.12.14a5.59 5.59 0 0 1-1.87-.17h-.2q-3.25 0-6.22.17h-.24a5.21 5.21 0 0 1-1.58.24h-2.19l-1.14.13a7.52 7.52 0 0 1-2.59-.1h-.24c-5.63.08-11.36.23-16.89.38s-11.56.31-17.34.38c-11.69.15-24 .14-40.07 0-5.59-.05-11.28-.22-16.78-.38-7.82-.05-15.92-.28-23.91-.2zM50.89 18a.35.35 0 0 1 0 .12.66.66 0 0 1-.12.18v-.57zm-.63-.32a.32.32 0 0 1 .23-.15.44.44 0 0 1 .22.12l-.09.64a.59.59 0 0 1-.36-.61zm522 32.06a.71.71 0 0 1-.24-.18.54.54 0 0 1-.14-.53.49.49 0 0 1 .29.1.5.5 0 0 1 .1.11l.06.27a.59.59 0 0 1-.07.23z"/><path class="f47c4965-d3ba-4a4b-a14b-2758e8b95de2" d="M101.48 122.66A12.28 12.28 0 1 1 89.35 135a12.16 12.16 0 0 1 12.13-12.34zm0 19.53a7.25 7.25 0 1 0-7.06-7.19 7.13 7.13 0 0 0 7.06 7.19zM124.82 122.94h9.83c5.46 0 7.89 3.93 7.89 7.85s-2.43 7.82-7.89 7.82h-4.72v8.27h-5.11zm5.11 4.48v6.74h4.48a3.18 3.18 0 0 0 3-3.37c0-1.49-1-3.37-2.88-3.37zM153.11 122.94h15.15v4.48h-10.08v5.46H167v4.41h-8.83v5.11h10.39v4.48h-15.45zM198 146.88h-4.55l-8.34-14.49v14.49h-5.07v-23.94h4.66l8.2 14.31v-14.31h5.1zM229.85 139.86c.07 1.53 1.29 2.88 3.58 2.88 2 0 3.47-1 3.51-2.54 0-1.08-.45-2-2.88-2.71l-2.88-.8c-5.28-1.63-6.18-4.73-6.18-6.88 0-4.27 3.65-7.16 8.23-7.16s8.1 2.74 8.1 7.33h-5.07c0-1.6-1.08-2.71-3.09-2.71-1.77 0-3.09 1-3.09 2.4 0 .63.24 1.77 2.57 2.43l2.85.9c5.8 1.67 6.64 4.93 6.57 7.23-.07 4.76-4.38 7-8.62 7-5.21 0-8.69-3.09-8.69-7.4zM253.2 122.94h9.8c5.46 0 7.89 3.93 7.89 7.85s-2.43 7.82-7.89 7.82h-4.72v8.27h-5.08zm5.11 4.48v6.74h4.48a3.18 3.18 0 0 0 3-3.37c0-1.49-1-3.37-2.88-3.37zM299.21 146.88h-6.12l-5.35-8.27h-1.15v8.27h-5.11v-23.94h9.8a7.52 7.52 0 0 1 8 7.85 7.4 7.4 0 0 1-6 7.61zm-12.61-19.46v6.74h4.31a3.18 3.18 0 0 0 3-3.37c0-1.49-1-3.37-2.88-3.37zM315.64 122.94v23.94h-5.07v-23.94zM346.18 146.88h-4.55l-8.34-14.49v14.49h-5.07v-23.94h4.66l8.2 14.31v-14.31h5.11zM374.88 129.82a7 7 0 0 0-5.25-2.43 7.61 7.61 0 0 0 0 15.18c2.57 0 5.77-1.6 5.8-4.13H369v-4.14h12.3c0 9-4.79 12.93-11.67 12.93a12.28 12.28 0 0 1 0-24.56 11.85 11.85 0 0 1 9 3.93zM406.35 146.88v-2.64l9.35-11.08a4.2 4.2 0 0 0 1.22-2.57c0-1.22-1-2.26-2.85-2.26a3.38 3.38 0 0 0-3.23 3.16l-4.45-.76c.7-4.34 3.65-7.05 8-7.05 4 0 7.44 2.81 7.44 6.91a8.83 8.83 0 0 1-2.4 5.77l-5.25 5.94h7v4.59zM441.1 123.67c6.64 0 8.44 5.25 8.44 11.81s-1.81 11.74-8.44 11.74-8.51-5.25-8.51-11.74 1.87-11.81 8.51-11.81zm0 18.83c2.74 0 3.58-3.2 3.58-7s-.83-7.09-3.58-7.09-3.65 3.23-3.65 7.09.87 7 3.65 7zM468.62 146.88h-4.87v-16.3l-3.89 1.67V128l8.76-4.17zM497.21 124.12l-10 22.76h-5.53l8-18.28H480v-4.48z"/><path class="d01a3deb-afbc-48eb-9991-b296f004303e" d="M335.57 183.55l-78.82.15.22 4.77 78.82-.16-.22-4.76z"/></svg>